<svg width="472" height="145" viewBox="0 0 472 145" fill="none" xmlns="http://www.w3.org/2000/svg">
<path d="M447.871 45.5761C447.871 42.9307 447.103 41.0107 445.567 39.8161C444.116 38.5361 442.111 37.8961 439.551 37.8961C437.844 37.8961 436.138 38.1094 434.431 38.5361C432.81 38.9627 431.402 39.6027 430.207 40.4561V84.8721C429.354 85.1281 427.988 85.3841 426.111 85.6401C424.319 85.8961 422.442 86.0241 420.479 86.0241C418.602 86.0241 416.895 85.8961 415.359 85.6401C413.908 85.3841 412.671 84.8721 411.647 84.1041C410.623 83.3361 409.812 82.3121 409.215 81.0321C408.703 79.6667 408.447 77.9174 408.447 75.7841V37.3841C408.447 35.0801 408.916 33.2027 409.855 31.7521C410.879 30.3014 412.244 28.9787 413.951 27.7841C416.852 25.7361 420.479 24.0721 424.831 22.7921C429.268 21.5121 434.175 20.8721 439.551 20.8721C449.194 20.8721 456.618 23.0054 461.823 27.2721C467.028 31.4534 469.631 37.2987 469.631 44.8081V84.8721C468.778 85.1281 467.412 85.3841 465.535 85.6401C463.743 85.8961 461.866 86.0241 459.903 86.0241C458.026 86.0241 456.319 85.8961 454.783 85.6401C453.332 85.3841 452.095 84.8721 451.071 84.1041C450.047 83.3361 449.236 82.3121 448.639 81.0321C448.127 79.6667 447.871 77.9174 447.871 75.7841V45.5761Z" fill="#000732"/>
<path d="M365.446 71.1761C366.897 71.1761 368.475 71.0481 370.182 70.7921C371.974 70.4507 373.297 70.0241 374.15 69.5121V59.2721L364.934 60.0401C362.545 60.2107 360.582 60.7227 359.046 61.5761C357.51 62.4294 356.742 63.7094 356.742 65.4161C356.742 67.1227 357.382 68.5307 358.662 69.6401C360.027 70.6641 362.289 71.1761 365.446 71.1761ZM364.422 20.8721C369.03 20.8721 373.211 21.3414 376.966 22.2801C380.806 23.2187 384.049 24.6694 386.694 26.6321C389.425 28.5094 391.515 30.9414 392.966 33.9281C394.417 36.8294 395.142 40.2854 395.142 44.2961V72.9681C395.142 75.1867 394.502 77.0214 393.222 78.4721C392.027 79.8374 390.577 81.0321 388.87 82.0561C383.323 85.3841 375.515 87.0481 365.446 87.0481C360.923 87.0481 356.827 86.6214 353.158 85.7681C349.574 84.9147 346.459 83.6347 343.814 81.9281C341.254 80.2214 339.249 78.0454 337.798 75.4001C336.433 72.7547 335.75 69.6827 335.75 66.1841C335.75 60.2961 337.499 55.7734 340.998 52.6161C344.497 49.4587 349.915 47.4961 357.254 46.7281L374.022 44.9361V44.0401C374.022 41.5654 372.913 39.8161 370.694 38.7921C368.561 37.6827 365.446 37.1281 361.35 37.1281C358.107 37.1281 354.95 37.4694 351.878 38.1521C348.806 38.8347 346.033 39.6881 343.558 40.7121C342.449 39.9441 341.51 38.7921 340.742 37.2561C339.974 35.6347 339.59 33.9707 339.59 32.2641C339.59 30.0454 340.102 28.2961 341.126 27.0161C342.235 25.6507 343.899 24.4987 346.118 23.5601C348.593 22.6214 351.494 21.9387 354.822 21.5121C358.235 21.0854 361.435 20.8721 364.422 20.8721Z" fill="#000732"/>
<path d="M301.468 87.0481C296.433 87.0481 291.74 86.3654 287.388 85.0001C283.121 83.5494 279.367 81.4161 276.124 78.6001C272.967 75.7841 270.449 72.2427 268.572 67.9761C266.78 63.7094 265.884 58.7174 265.884 53.0001C265.884 47.3681 266.78 42.5467 268.572 38.5361C270.449 34.4401 272.881 31.1121 275.868 28.5521C278.855 25.9067 282.268 23.9867 286.108 22.7921C289.948 21.5121 293.873 20.8721 297.884 20.8721C302.407 20.8721 306.503 21.5547 310.172 22.9201C313.927 24.2854 317.127 26.1627 319.772 28.5521C322.503 30.9414 324.593 33.8001 326.044 37.1281C327.58 40.4561 328.348 44.0827 328.348 48.0081C328.348 50.9094 327.537 53.1281 325.916 54.6641C324.295 56.2001 322.033 57.1814 319.132 57.6081L287.516 62.3441C288.455 65.1601 290.375 67.2934 293.276 68.7441C296.177 70.1094 299.505 70.7921 303.26 70.7921C306.759 70.7921 310.044 70.3654 313.116 69.5121C316.273 68.5734 318.833 67.5067 320.796 66.3121C322.161 67.1654 323.313 68.3601 324.252 69.8961C325.191 71.4321 325.66 73.0534 325.66 74.7601C325.66 78.6001 323.868 81.4587 320.284 83.3361C317.553 84.7867 314.481 85.7681 311.068 86.2801C307.655 86.7921 304.455 87.0481 301.468 87.0481ZM297.884 36.7441C295.836 36.7441 294.044 37.0854 292.508 37.7681C291.057 38.4507 289.863 39.3467 288.924 40.4561C287.985 41.4801 287.26 42.6747 286.748 44.0401C286.321 45.3201 286.065 46.6427 285.98 48.0081L307.868 44.4241C307.612 42.7174 306.673 41.0107 305.052 39.3041C303.431 37.5974 301.041 36.7441 297.884 36.7441Z" fill="#000732"/>
<path d="M254.841 84.8721C253.902 85.0428 252.494 85.2561 250.617 85.5121C248.825 85.8534 246.99 86.0241 245.113 86.0241C243.236 86.0241 241.529 85.8961 239.993 85.6401C238.542 85.3841 237.305 84.8721 236.281 84.1041C235.257 83.3361 234.446 82.3121 233.849 81.0321C233.337 79.6668 233.081 77.9174 233.081 75.7841V1.54409C234.02 1.37342 235.385 1.16009 237.177 0.904091C239.054 0.562757 240.932 0.39209 242.809 0.39209C244.686 0.39209 246.35 0.520088 247.801 0.776085C249.337 1.03209 250.617 1.54409 251.641 2.31209C252.665 3.08009 253.433 4.14675 253.945 5.51208C254.542 6.79209 254.841 8.49876 254.841 10.6321V84.8721Z" fill="#000732"/>
<path d="M205.144 38.0241C203.011 38.0241 200.963 38.3654 199 39.0481C197.123 39.7307 195.459 40.7547 194.008 42.1201C192.643 43.4001 191.533 45.0214 190.68 46.9841C189.827 48.9467 189.4 51.2507 189.4 53.8961C189.4 59.1867 190.893 63.1547 193.88 65.8001C196.952 68.4454 200.664 69.7681 205.016 69.7681C207.576 69.7681 209.795 69.4694 211.672 68.8721C213.549 68.2747 215.213 67.6347 216.664 66.9521C218.371 68.1467 219.651 69.4694 220.504 70.9201C221.357 72.2854 221.784 73.9494 221.784 75.9121C221.784 79.4107 220.12 82.1414 216.792 84.1041C213.464 85.9814 208.856 86.9201 202.968 86.9201C197.592 86.9201 192.728 86.1521 188.376 84.6161C184.024 82.9947 180.269 80.7761 177.112 77.9601C174.04 75.0587 171.651 71.6027 169.944 67.5921C168.237 63.5814 167.384 59.1441 167.384 54.2801C167.384 48.6481 168.28 43.7414 170.072 39.5601C171.949 35.2934 174.467 31.7947 177.624 29.0641C180.781 26.3334 184.408 24.2854 188.504 22.9201C192.685 21.5547 197.08 20.8721 201.688 20.8721C207.832 20.8721 212.568 21.9814 215.896 24.2001C219.224 26.4187 220.888 29.2774 220.888 32.7761C220.888 34.3974 220.504 35.9334 219.736 37.3841C218.968 38.7494 218.072 39.9441 217.048 40.9681C215.597 40.2854 213.848 39.6454 211.8 39.0481C209.752 38.3654 207.533 38.0241 205.144 38.0241Z" fill="#000732"/>
<path d="M130.716 84.8721C129.777 85.0428 128.369 85.2561 126.492 85.5121C124.7 85.8534 122.865 86.0241 120.988 86.0241C119.111 86.0241 117.404 85.8961 115.868 85.6401C114.417 85.3841 113.18 84.8721 112.156 84.1041C111.132 83.3361 110.321 82.3121 109.724 81.0321C109.212 79.6668 108.956 77.9174 108.956 75.7841V1.54409C109.895 1.37342 111.26 1.16009 113.052 0.904091C114.929 0.562757 116.807 0.39209 118.684 0.39209C120.561 0.39209 122.225 0.520088 123.676 0.776085C125.212 1.03209 126.492 1.54409 127.516 2.31209C128.54 3.08009 129.308 4.14675 129.82 5.51208C130.417 6.79209 130.716 8.49876 130.716 10.6321V84.8721Z" fill="#000732"/>
<path d="M94.841 84.8721C93.9023 85.0428 92.4943 85.2561 90.617 85.5121C88.825 85.8534 86.9903 86.0241 85.113 86.0241C83.2357 86.0241 81.529 85.8961 79.993 85.6401C78.5423 85.3841 77.305 84.8721 76.281 84.1041C75.257 83.3361 74.4463 82.3121 73.849 81.0321C73.337 79.6668 73.081 77.9174 73.081 75.7841V1.54409C74.0197 1.37342 75.385 1.16009 77.177 0.904091C79.0543 0.562757 80.9317 0.39209 82.809 0.39209C84.6863 0.39209 86.3503 0.520088 87.801 0.776085C89.337 1.03209 90.617 1.54409 91.641 2.31209C92.665 3.08009 93.433 4.14675 93.945 5.51208C94.5423 6.79209 94.841 8.49876 94.841 10.6321V84.8721Z" fill="#000732"/>
<path d="M29.696 71.1761C31.1467 71.1761 32.7253 71.0481 34.432 70.7921C36.224 70.4507 37.5467 70.0241 38.4 69.5121V59.2721L29.184 60.0401C26.7947 60.2107 24.832 60.7227 23.296 61.5761C21.76 62.4294 20.992 63.7094 20.992 65.4161C20.992 67.1227 21.632 68.5307 22.912 69.6401C24.2773 70.6641 26.5387 71.1761 29.696 71.1761ZM28.672 20.8721C33.28 20.8721 37.4613 21.3414 41.216 22.2801C45.056 23.2187 48.2987 24.6694 50.944 26.6321C53.6747 28.5094 55.7653 30.9414 57.216 33.9281C58.6667 36.8294 59.392 40.2854 59.392 44.2961V72.9681C59.392 75.1867 58.752 77.0214 57.472 78.4721C56.2773 79.8374 54.8267 81.0321 53.12 82.0561C47.5733 85.3841 39.7653 87.0481 29.696 87.0481C25.1733 87.0481 21.0773 86.6214 17.408 85.7681C13.824 84.9147 10.7093 83.6347 8.064 81.9281C5.504 80.2214 3.49867 78.0454 2.048 75.4001C0.682667 72.7547 0 69.6827 0 66.1841C0 60.2961 1.74933 55.7734 5.248 52.6161C8.74667 49.4587 14.1653 47.4961 21.504 46.7281L38.272 44.9361V44.0401C38.272 41.5654 37.1627 39.8161 34.944 38.7921C32.8107 37.6827 29.696 37.1281 25.6 37.1281C22.3573 37.1281 19.2 37.4694 16.128 38.1521C13.056 38.8347 10.2827 39.6881 7.808 40.7121C6.69867 39.9441 5.76 38.7921 4.992 37.2561C4.224 35.6347 3.84 33.9707 3.84 32.2641C3.84 30.0454 4.352 28.2961 5.376 27.0161C6.48533 25.6507 8.14933 24.4987 10.368 23.5601C12.8427 22.6214 15.744 21.9387 19.072 21.5121C22.4853 21.0854 25.6853 20.8721 28.672 20.8721Z" fill="#000732"/>
<path d="M465.098 107.429H462.412C461.86 106.669 461.28 105.853 460.67 104.982C460.079 104.111 459.489 103.221 458.898 102.313C458.327 101.404 457.776 100.514 457.245 99.6429C456.733 98.7716 456.28 97.9744 455.887 97.2514C456.005 97.0103 456.202 96.7879 456.477 96.5839C456.753 96.3615 457.097 96.2502 457.51 96.2502C457.983 96.2502 458.357 96.3615 458.632 96.5839C458.908 96.7879 459.174 97.1309 459.43 97.6129C459.626 97.928 459.872 98.3266 460.168 98.8086C460.463 99.2906 460.768 99.819 461.083 100.394C461.418 100.95 461.752 101.506 462.087 102.062C462.421 102.618 462.727 103.128 463.002 103.592C463.278 104.037 463.504 104.407 463.681 104.704H463.799C464.429 103.684 464.99 102.73 465.482 101.84C465.994 100.95 466.486 100.069 466.959 99.198C467.431 98.3266 467.903 97.4367 468.376 96.5283C468.553 96.4356 468.76 96.3707 468.996 96.3337C469.232 96.2781 469.448 96.2502 469.645 96.2502C470.098 96.2502 470.452 96.3615 470.708 96.5839C470.964 96.7879 471.092 97.0845 471.092 97.4738C471.092 97.6592 470.954 98.03 470.679 98.5862C470.423 99.1238 470.039 99.819 469.527 100.672C469.015 101.525 468.386 102.526 467.638 103.675C466.909 104.806 466.063 106.057 465.098 107.429ZM462.234 106.206H465.246V113.241C465.128 113.278 464.931 113.325 464.656 113.38C464.4 113.436 464.134 113.464 463.858 113.464C463.288 113.464 462.874 113.362 462.618 113.158C462.362 112.935 462.234 112.592 462.234 112.129V106.206Z" fill="#000732"/>
<path d="M438.229 99.226L440.886 99.0869C440.965 99.7358 441.034 100.45 441.093 101.228C441.152 102.007 441.191 102.795 441.211 103.592C441.23 104.371 441.24 105.121 441.24 105.844V113.242C441.122 113.279 440.925 113.325 440.65 113.381C440.394 113.436 440.128 113.464 439.853 113.464C439.301 113.464 438.888 113.362 438.612 113.158C438.357 112.954 438.229 112.62 438.229 112.157V99.226ZM452.932 110.461L450.245 110.572C450.068 109.089 449.97 107.596 449.95 106.095C449.93 104.593 449.921 103.147 449.921 101.757V96.4173C450.058 96.3802 450.255 96.3432 450.511 96.3061C450.767 96.2505 451.033 96.2227 451.308 96.2227C451.879 96.2227 452.292 96.3246 452.548 96.5286C452.804 96.7139 452.932 97.0384 452.932 97.5019V110.461ZM452.932 109.46V108.57V112.936C452.735 113.084 452.47 113.204 452.135 113.297C451.8 113.408 451.417 113.464 450.983 113.464C450.452 113.464 449.98 113.381 449.566 113.214C449.173 113.028 448.818 112.667 448.503 112.129L443.543 103.981C443.268 103.518 442.972 103.017 442.657 102.48C442.342 101.923 442.047 101.395 441.772 100.894C441.496 100.394 441.27 99.9583 441.093 99.5875L438.229 100.227V96.8623C438.425 96.6583 438.701 96.5007 439.055 96.3895C439.41 96.2783 439.784 96.2227 440.177 96.2227C440.709 96.2227 441.181 96.3154 441.594 96.5007C442.008 96.6861 442.372 97.0384 442.687 97.5575L447.677 105.705C447.972 106.169 448.267 106.679 448.562 107.235C448.877 107.772 449.163 108.292 449.419 108.792C449.675 109.293 449.891 109.728 450.068 110.099L452.932 109.46Z" fill="#000732"/>
<path d="M427.021 98.6976H426.903C426.627 99.4206 426.312 100.264 425.958 101.228C425.603 102.192 425.229 103.193 424.836 104.232C424.462 105.251 424.107 106.224 423.773 107.151L423.507 108.208C423.389 108.56 423.251 108.968 423.094 109.432C422.936 109.895 422.769 110.377 422.592 110.878C422.434 111.36 422.277 111.823 422.119 112.268C421.962 112.695 421.834 113.047 421.736 113.325C421.578 113.399 421.401 113.455 421.204 113.492C421.027 113.529 420.801 113.547 420.525 113.547C420.053 113.547 419.659 113.445 419.344 113.242C419.049 113.038 418.901 112.741 418.901 112.352C418.901 112.148 418.931 111.953 418.99 111.768C419.069 111.564 419.147 111.341 419.226 111.1C419.443 110.488 419.718 109.728 420.053 108.82C420.387 107.893 420.761 106.892 421.175 105.817C421.588 104.741 422.011 103.648 422.444 102.535C422.877 101.423 423.291 100.366 423.684 99.365C424.098 98.3454 424.472 97.4462 424.806 96.6676C425.003 96.5749 425.298 96.4822 425.692 96.3895C426.105 96.2783 426.519 96.2227 426.932 96.2227C427.464 96.2227 427.956 96.2968 428.408 96.4451C428.861 96.5934 429.156 96.8437 429.294 97.196C429.727 98.2341 430.2 99.4299 430.711 100.783C431.223 102.118 431.735 103.509 432.247 104.955C432.778 106.401 433.28 107.81 433.752 109.181C434.225 110.553 434.648 111.795 435.022 112.908C434.864 113.093 434.638 113.242 434.343 113.353C434.067 113.464 433.752 113.52 433.398 113.52C432.867 113.52 432.483 113.427 432.247 113.242C432.01 113.056 431.823 112.741 431.686 112.296L430.268 108.208L429.944 106.957C429.589 105.919 429.225 104.88 428.851 103.842C428.497 102.804 428.152 101.84 427.818 100.95C427.503 100.06 427.237 99.3094 427.021 98.6976ZM422.09 109.015L423.182 106.706H431.007L431.508 109.015H422.09Z" fill="#000732"/>
<path d="M404.638 107.457V97.7239C404.638 97.3902 404.727 97.14 404.904 96.9731C405.101 96.8063 405.366 96.6672 405.701 96.556C406.292 96.3891 407 96.2686 407.827 96.1945C408.673 96.1018 409.48 96.0554 410.248 96.0554C412.787 96.0554 414.667 96.5652 415.887 97.5849C417.108 98.6045 417.718 99.9764 417.718 101.701C417.718 102.869 417.442 103.888 416.891 104.76C416.36 105.612 415.553 106.28 414.47 106.762C413.387 107.225 412.029 107.457 410.396 107.457H404.638ZM406.292 113.464C405.721 113.464 405.298 113.362 405.022 113.158C404.766 112.935 404.638 112.592 404.638 112.129V106.122H407.709V113.241C407.571 113.278 407.374 113.325 407.118 113.38C406.862 113.436 406.587 113.464 406.292 113.464ZM407.679 105.121H410.218C411.616 105.121 412.699 104.843 413.466 104.287C414.254 103.712 414.647 102.859 414.647 101.728C414.647 100.597 414.273 99.7632 413.525 99.2256C412.777 98.688 411.705 98.4191 410.307 98.4191C409.815 98.4191 409.342 98.4377 408.89 98.4748C408.457 98.5118 408.053 98.5675 407.679 98.6416V105.121Z" fill="#000732"/>
<path d="M392.232 108.959C392.055 109.07 391.829 109.172 391.553 109.265C391.297 109.357 391.002 109.404 390.667 109.404C390.254 109.404 389.9 109.348 389.605 109.237C389.309 109.126 389.103 108.94 388.985 108.681C388.059 106.716 387.252 104.954 386.563 103.397C385.894 101.84 385.363 100.542 384.969 99.5039H384.851C384.792 100.82 384.723 102.044 384.644 103.175C384.585 104.306 384.526 105.399 384.467 106.456C384.408 107.513 384.349 108.597 384.29 109.71C384.231 110.822 384.162 112.008 384.083 113.269C383.926 113.325 383.719 113.371 383.463 113.408C383.227 113.445 382.981 113.464 382.725 113.464C382.194 113.464 381.8 113.371 381.544 113.186C381.308 112.982 381.19 112.685 381.19 112.296C381.19 112.018 381.21 111.48 381.249 110.683C381.288 109.867 381.338 108.894 381.397 107.763C381.475 106.632 381.564 105.436 381.662 104.176C381.761 102.897 381.859 101.636 381.958 100.394C382.056 99.1517 382.154 98.0208 382.253 97.0011C382.41 96.8343 382.656 96.6767 382.991 96.5284C383.345 96.3801 383.778 96.3059 384.29 96.3059C384.881 96.3059 385.363 96.4079 385.737 96.6118C386.13 96.8157 386.426 97.1309 386.623 97.5573C387.075 98.4286 387.528 99.3834 387.981 100.422C388.433 101.46 388.876 102.498 389.309 103.536C389.762 104.574 390.185 105.548 390.579 106.456H390.697C391.484 104.602 392.262 102.804 393.029 101.061C393.797 99.3185 394.447 97.8446 394.978 96.6396C395.195 96.5469 395.46 96.4728 395.775 96.4171C396.09 96.343 396.405 96.3059 396.72 96.3059C397.291 96.3059 397.744 96.3986 398.078 96.584C398.433 96.7508 398.659 97.0104 398.757 97.3626C398.836 97.6963 398.915 98.2432 398.994 99.0033C399.092 99.7634 399.19 100.653 399.289 101.673C399.387 102.674 399.486 103.74 399.584 104.871C399.682 105.983 399.771 107.077 399.85 108.152C399.928 109.209 399.997 110.173 400.056 111.044C400.135 111.916 400.184 112.602 400.204 113.102C399.988 113.232 399.761 113.325 399.525 113.38C399.289 113.436 399.003 113.464 398.669 113.464C398.275 113.464 397.931 113.39 397.635 113.241C397.34 113.074 397.173 112.769 397.133 112.324C397.015 110.618 396.907 108.959 396.809 107.346C396.73 105.733 396.651 104.259 396.572 102.924C396.513 101.571 396.454 100.449 396.395 99.5595H396.277C395.903 100.524 395.382 101.747 394.712 103.23C394.063 104.713 393.236 106.623 392.232 108.959Z" fill="#000732"/>
<path d="M377.691 104.843C377.691 106.771 377.307 108.393 376.54 109.71C375.772 111.026 374.729 112.018 373.41 112.685C372.111 113.353 370.625 113.686 368.952 113.686C367.298 113.686 365.802 113.353 364.464 112.685C363.145 112.018 362.102 111.026 361.334 109.71C360.586 108.393 360.212 106.771 360.212 104.843C360.212 102.915 360.596 101.302 361.364 100.004C362.151 98.6882 363.204 97.6963 364.523 97.0289C365.842 96.343 367.318 96 368.952 96C370.585 96 372.062 96.343 373.38 97.0289C374.699 97.6963 375.742 98.6882 376.51 100.004C377.297 101.302 377.691 102.915 377.691 104.843ZM374.561 104.843C374.561 102.767 374.05 101.172 373.026 100.06C372.003 98.9477 370.644 98.3915 368.952 98.3915C367.259 98.3915 365.901 98.9477 364.877 100.06C363.854 101.172 363.342 102.767 363.342 104.843C363.342 106.92 363.844 108.514 364.848 109.626C365.871 110.739 367.239 111.295 368.952 111.295C370.664 111.295 372.022 110.739 373.026 109.626C374.05 108.514 374.561 106.92 374.561 104.843Z" fill="#000732"/>
<path d="M357.578 98.3915C357.578 98.6882 357.48 98.957 357.283 99.198C357.106 99.4205 356.889 99.5966 356.633 99.7263C356.141 99.3926 355.561 99.0868 354.891 98.8087C354.222 98.5306 353.376 98.3915 352.352 98.3915C351.191 98.3915 350.157 98.6418 349.252 99.1424C348.366 99.6244 347.668 100.347 347.156 101.311C346.644 102.275 346.388 103.462 346.388 104.871C346.388 107.003 346.949 108.607 348.071 109.682C349.193 110.757 350.659 111.295 352.47 111.295C353.454 111.295 354.301 111.165 355.009 110.905C355.738 110.646 356.348 110.349 356.84 110.016C357.076 110.127 357.283 110.303 357.46 110.544C357.637 110.785 357.726 111.063 357.726 111.378C357.726 111.619 357.657 111.851 357.519 112.073C357.381 112.277 357.145 112.472 356.81 112.657C356.377 112.917 355.787 113.149 355.039 113.353C354.291 113.575 353.336 113.686 352.175 113.686C350.502 113.686 348.986 113.362 347.628 112.713C346.29 112.064 345.227 111.091 344.439 109.793C343.652 108.477 343.258 106.836 343.258 104.871C343.258 102.924 343.652 101.293 344.439 99.9766C345.246 98.6604 346.319 97.6685 347.658 97.0011C348.996 96.3337 350.453 96 352.027 96C353.149 96 354.124 96.1205 354.95 96.3615C355.777 96.584 356.417 96.8806 356.87 97.2514C357.342 97.6222 357.578 98.0022 357.578 98.3915Z" fill="#000732"/>
<path d="M333.966 105.205V111.183C333.966 111.573 333.858 111.888 333.641 112.129C333.444 112.37 333.13 112.592 332.696 112.796C332.204 113.056 331.496 113.269 330.571 113.436C329.665 113.603 328.75 113.686 327.825 113.686C325.994 113.686 324.351 113.38 322.894 112.769C321.457 112.138 320.335 111.174 319.528 109.876C318.721 108.56 318.318 106.892 318.318 104.871C318.318 102.906 318.731 101.265 319.558 99.9488C320.404 98.6325 321.526 97.65 322.924 97.0011C324.321 96.3337 325.866 96 327.559 96C328.701 96 329.705 96.1205 330.571 96.3615C331.437 96.584 332.106 96.8806 332.578 97.2514C333.051 97.6036 333.287 97.9837 333.287 98.3915C333.287 98.6882 333.198 98.957 333.021 99.198C332.844 99.4205 332.637 99.5966 332.401 99.7263C331.87 99.3926 331.24 99.0868 330.512 98.8087C329.783 98.5306 328.868 98.3915 327.766 98.3915C326.565 98.3915 325.483 98.6418 324.518 99.1424C323.573 99.6244 322.825 100.347 322.274 101.311C321.723 102.275 321.447 103.462 321.447 104.871C321.447 106.354 321.723 107.568 322.274 108.514C322.845 109.459 323.613 110.164 324.577 110.627C325.561 111.072 326.664 111.295 327.884 111.295C328.533 111.295 329.134 111.248 329.685 111.156C330.236 111.044 330.669 110.915 330.984 110.766V106.234H326.821C326.762 106.122 326.693 105.965 326.614 105.761C326.555 105.557 326.526 105.344 326.526 105.121C326.526 104.713 326.624 104.407 326.821 104.204C327.018 104 327.284 103.898 327.618 103.898H332.578C332.972 103.898 333.297 104.018 333.553 104.259C333.828 104.5 333.966 104.815 333.966 105.205Z" fill="#000732"/>
<path d="M299.686 99.226L302.343 99.0869C302.422 99.7358 302.49 100.45 302.549 101.228C302.609 102.007 302.648 102.795 302.668 103.592C302.687 104.371 302.697 105.121 302.697 105.844V113.242C302.579 113.279 302.382 113.325 302.107 113.381C301.851 113.436 301.585 113.464 301.309 113.464C300.758 113.464 300.345 113.362 300.069 113.158C299.813 112.954 299.686 112.62 299.686 112.157V99.226ZM314.389 110.461L311.702 110.572C311.525 109.089 311.427 107.596 311.407 106.095C311.387 104.593 311.377 103.147 311.377 101.757V96.4173C311.515 96.3802 311.712 96.3432 311.968 96.3061C312.224 96.2505 312.49 96.2227 312.765 96.2227C313.336 96.2227 313.749 96.3246 314.005 96.5286C314.261 96.7139 314.389 97.0384 314.389 97.5019V110.461ZM314.389 109.46V108.57V112.936C314.192 113.084 313.926 113.204 313.592 113.297C313.257 113.408 312.873 113.464 312.44 113.464C311.909 113.464 311.437 113.381 311.023 113.214C310.629 113.028 310.275 112.667 309.96 112.129L305 103.981C304.724 103.518 304.429 103.017 304.114 102.48C303.799 101.923 303.504 101.395 303.229 100.894C302.953 100.394 302.727 99.9583 302.549 99.5875L299.686 100.227V96.8623C299.882 96.6583 300.158 96.5007 300.512 96.3895C300.867 96.2783 301.241 96.2227 301.634 96.2227C302.166 96.2227 302.638 96.3154 303.051 96.5007C303.465 96.6861 303.829 97.0384 304.144 97.5575L309.134 105.705C309.429 106.169 309.724 106.679 310.019 107.235C310.334 107.772 310.62 108.292 310.876 108.792C311.131 109.293 311.348 109.728 311.525 110.099L314.389 109.46Z" fill="#000732"/>
<path d="M291.671 102.674H294.712V113.242C294.594 113.279 294.407 113.325 294.151 113.381C293.895 113.436 293.619 113.464 293.324 113.464C292.753 113.464 292.33 113.362 292.054 113.158C291.799 112.936 291.671 112.593 291.671 112.129V102.674ZM294.712 105.622H291.671V96.4451C291.808 96.408 292.005 96.3617 292.261 96.3061C292.537 96.2505 292.812 96.2227 293.088 96.2227C293.659 96.2227 294.072 96.3246 294.328 96.5286C294.584 96.7139 294.712 97.0569 294.712 97.5575V105.622Z" fill="#000732"/>
<path d="M272.035 99.226L274.692 99.0869C274.771 99.7358 274.839 100.45 274.899 101.228C274.958 102.007 274.997 102.795 275.017 103.592C275.036 104.371 275.046 105.121 275.046 105.844V113.242C274.928 113.279 274.731 113.325 274.456 113.381C274.2 113.436 273.934 113.464 273.658 113.464C273.107 113.464 272.694 113.362 272.418 113.158C272.163 112.954 272.035 112.62 272.035 112.157V99.226ZM286.738 110.461L284.051 110.572C283.874 109.089 283.776 107.596 283.756 106.095C283.736 104.593 283.727 103.147 283.727 101.757V96.4173C283.864 96.3802 284.061 96.3432 284.317 96.3061C284.573 96.2505 284.839 96.2227 285.114 96.2227C285.685 96.2227 286.098 96.3246 286.354 96.5286C286.61 96.7139 286.738 97.0384 286.738 97.5019V110.461ZM286.738 109.46V108.57V112.936C286.541 113.084 286.276 113.204 285.941 113.297C285.606 113.408 285.222 113.464 284.789 113.464C284.258 113.464 283.786 113.381 283.372 113.214C282.979 113.028 282.624 112.667 282.309 112.129L277.349 103.981C277.074 103.518 276.778 103.017 276.463 102.48C276.148 101.923 275.853 101.395 275.578 100.894C275.302 100.394 275.076 99.9583 274.899 99.5875L272.035 100.227V96.8623C272.231 96.6583 272.507 96.5007 272.861 96.3895C273.216 96.2783 273.59 96.2227 273.983 96.2227C274.515 96.2227 274.987 96.3154 275.4 96.5007C275.814 96.6861 276.178 97.0384 276.493 97.5575L281.483 105.705C281.778 106.169 282.073 106.679 282.368 107.235C282.683 107.772 282.969 108.292 283.225 108.792C283.48 109.293 283.697 109.728 283.874 110.099L286.738 109.46Z" fill="#000732"/>
<path d="M260.827 98.6976H260.708C260.433 99.4206 260.118 100.264 259.764 101.228C259.409 102.192 259.035 103.193 258.642 104.232C258.268 105.251 257.913 106.224 257.579 107.151L257.313 108.208C257.195 108.56 257.057 108.968 256.9 109.432C256.742 109.895 256.575 110.377 256.398 110.878C256.24 111.36 256.083 111.823 255.925 112.268C255.768 112.695 255.64 113.047 255.542 113.325C255.384 113.399 255.207 113.455 255.01 113.492C254.833 113.529 254.607 113.547 254.331 113.547C253.859 113.547 253.465 113.445 253.15 113.242C252.855 113.038 252.707 112.741 252.707 112.352C252.707 112.148 252.737 111.953 252.796 111.768C252.874 111.564 252.953 111.341 253.032 111.1C253.248 110.488 253.524 109.728 253.859 108.82C254.193 107.893 254.567 106.892 254.981 105.817C255.394 104.741 255.817 103.648 256.25 102.535C256.683 101.423 257.097 100.366 257.49 99.365C257.904 98.3454 258.278 97.4462 258.612 96.6676C258.809 96.5749 259.104 96.4822 259.498 96.3895C259.911 96.2783 260.325 96.2227 260.738 96.2227C261.269 96.2227 261.762 96.2968 262.214 96.4451C262.667 96.5934 262.962 96.8437 263.1 97.196C263.533 98.2341 264.005 99.4299 264.517 100.783C265.029 102.118 265.541 103.509 266.053 104.955C266.584 106.401 267.086 107.81 267.558 109.181C268.031 110.553 268.454 111.795 268.828 112.908C268.67 113.093 268.444 113.242 268.149 113.353C267.873 113.464 267.558 113.52 267.204 113.52C266.673 113.52 266.289 113.427 266.053 113.242C265.816 113.056 265.629 112.741 265.492 112.296L264.074 108.208L263.75 106.957C263.395 105.919 263.031 104.88 262.657 103.842C262.303 102.804 261.958 101.84 261.624 100.95C261.309 100.06 261.043 99.3094 260.827 98.6976ZM255.896 109.015L256.988 106.706H264.812L265.314 109.015H255.896Z" fill="#000732"/>
<path d="M238.156 102.619H241.167V113.075C241.069 113.112 240.882 113.167 240.606 113.241C240.35 113.297 240.085 113.325 239.809 113.325C239.297 113.325 238.894 113.186 238.599 112.908C238.303 112.611 238.156 112.231 238.156 111.768V102.619ZM241.167 106.957H238.156V97.9467C238.156 97.4832 238.303 97.1124 238.599 96.8343C238.894 96.5377 239.297 96.3894 239.809 96.3894C240.085 96.3894 240.35 96.4172 240.606 96.4728C240.882 96.5284 241.069 96.5841 241.167 96.6397V106.957ZM239.809 105.817V103.481H248.696C248.775 103.592 248.844 103.749 248.903 103.953C248.982 104.139 249.021 104.352 249.021 104.593C249.021 104.982 248.923 105.288 248.726 105.511C248.529 105.715 248.253 105.817 247.899 105.817H239.809ZM239.809 113.325V110.961H249.73C249.808 111.072 249.877 111.23 249.936 111.434C250.015 111.619 250.054 111.842 250.054 112.101C250.054 112.491 249.956 112.796 249.759 113.019C249.582 113.223 249.306 113.325 248.932 113.325H239.809ZM239.809 98.7531V96.3894H249.582C249.661 96.5006 249.739 96.6582 249.818 96.8622C249.897 97.0661 249.936 97.2793 249.936 97.5017C249.936 97.8911 249.838 98.197 249.641 98.4194C249.444 98.6419 249.169 98.7531 248.814 98.7531H239.809Z" fill="#000732"/>
<path d="M223.278 102.869H226.348V113.075L224.931 113.325C224.439 113.325 224.036 113.186 223.721 112.908C223.425 112.611 223.278 112.231 223.278 111.768V102.869ZM224.931 113.325V110.906H234.438C234.537 111.017 234.615 111.174 234.674 111.378C234.753 111.582 234.793 111.805 234.793 112.046C234.793 112.454 234.684 112.769 234.468 112.991C234.271 113.214 233.995 113.325 233.641 113.325H224.931ZM226.348 105.65H223.278V96.4451C223.416 96.408 223.612 96.3617 223.868 96.3061C224.144 96.2505 224.419 96.2227 224.695 96.2227C225.266 96.2227 225.679 96.3246 225.935 96.5286C226.211 96.7139 226.348 97.0569 226.348 97.5575V105.65Z" fill="#000732"/>
<path d="M219.381 98.3915C219.381 98.6882 219.283 98.957 219.086 99.198C218.909 99.4205 218.692 99.5966 218.436 99.7263C217.944 99.3926 217.363 99.0868 216.694 98.8087C216.025 98.5306 215.179 98.3915 214.155 98.3915C212.994 98.3915 211.96 98.6418 211.055 99.1424C210.169 99.6244 209.47 100.347 208.959 101.311C208.447 102.275 208.191 103.462 208.191 104.871C208.191 107.003 208.752 108.607 209.874 109.682C210.996 110.757 212.462 111.295 214.273 111.295C215.257 111.295 216.104 111.165 216.812 110.905C217.541 110.646 218.151 110.349 218.643 110.016C218.879 110.127 219.086 110.303 219.263 110.544C219.44 110.785 219.529 111.063 219.529 111.378C219.529 111.619 219.46 111.851 219.322 112.073C219.184 112.277 218.948 112.472 218.613 112.657C218.18 112.917 217.59 113.149 216.842 113.353C216.094 113.575 215.139 113.686 213.978 113.686C212.305 113.686 210.789 113.362 209.431 112.713C208.093 112.064 207.03 111.091 206.242 109.793C205.455 108.477 205.061 106.836 205.061 104.871C205.061 102.924 205.455 101.293 206.242 99.9766C207.049 98.6604 208.122 97.6685 209.461 97.0011C210.799 96.3337 212.256 96 213.83 96C214.952 96 215.927 96.1205 216.753 96.3615C217.58 96.584 218.22 96.8806 218.672 97.2514C219.145 97.6222 219.381 98.0022 219.381 98.3915Z" fill="#000732"/>
<path d="M185.247 102.869H188.318V113.075L186.9 113.325C186.408 113.325 186.005 113.186 185.69 112.908C185.395 112.611 185.247 112.231 185.247 111.768V102.869ZM186.9 113.325V110.906H196.407C196.506 111.017 196.585 111.174 196.644 111.378C196.722 111.582 196.762 111.805 196.762 112.046C196.762 112.454 196.653 112.769 196.437 112.991C196.24 113.214 195.965 113.325 195.61 113.325H186.9ZM188.318 105.65H185.247V96.4451C185.385 96.408 185.582 96.3617 185.837 96.3061C186.113 96.2505 186.389 96.2227 186.664 96.2227C187.235 96.2227 187.648 96.3246 187.904 96.5286C188.18 96.7139 188.318 97.0569 188.318 97.5575V105.65Z" fill="#000732"/>
<path d="M174.039 98.6976H173.921C173.645 99.4206 173.33 100.264 172.976 101.228C172.622 102.192 172.248 103.193 171.854 104.232C171.48 105.251 171.126 106.224 170.791 107.151L170.525 108.208C170.407 108.56 170.27 108.968 170.112 109.432C169.955 109.895 169.787 110.377 169.61 110.878C169.453 111.36 169.295 111.823 169.138 112.268C168.98 112.695 168.852 113.047 168.754 113.325C168.596 113.399 168.419 113.455 168.222 113.492C168.045 113.529 167.819 113.547 167.543 113.547C167.071 113.547 166.677 113.445 166.362 113.242C166.067 113.038 165.919 112.741 165.919 112.352C165.919 112.148 165.949 111.953 166.008 111.768C166.087 111.564 166.166 111.341 166.244 111.1C166.461 110.488 166.736 109.728 167.071 108.82C167.406 107.893 167.78 106.892 168.193 105.817C168.606 104.741 169.029 103.648 169.462 102.535C169.896 101.423 170.309 100.366 170.703 99.365C171.116 98.3454 171.49 97.4462 171.825 96.6676C172.021 96.5749 172.317 96.4822 172.71 96.3895C173.124 96.2783 173.537 96.2227 173.95 96.2227C174.482 96.2227 174.974 96.2968 175.427 96.4451C175.879 96.5934 176.175 96.8437 176.312 97.196C176.745 98.2341 177.218 99.4299 177.73 100.783C178.241 102.118 178.753 103.509 179.265 104.955C179.796 106.401 180.298 107.81 180.771 109.181C181.243 110.553 181.666 111.795 182.04 112.908C181.883 113.093 181.656 113.242 181.361 113.353C181.086 113.464 180.771 113.52 180.416 113.52C179.885 113.52 179.501 113.427 179.265 113.242C179.029 113.056 178.842 112.741 178.704 112.296L177.287 108.208L176.962 106.957C176.608 105.919 176.243 104.88 175.869 103.842C175.515 102.804 175.171 101.84 174.836 100.95C174.521 100.06 174.255 99.3094 174.039 98.6976ZM169.108 109.015L170.201 106.706H178.025L178.527 109.015H169.108Z" fill="#000732"/>
<path d="M147.937 99.226L150.594 99.0869C150.673 99.7358 150.742 100.45 150.801 101.228C150.86 102.007 150.899 102.795 150.919 103.592C150.939 104.371 150.948 105.121 150.948 105.844V113.242C150.83 113.279 150.633 113.325 150.358 113.381C150.102 113.436 149.836 113.464 149.561 113.464C149.01 113.464 148.596 113.362 148.321 113.158C148.065 112.954 147.937 112.62 147.937 112.157V99.226ZM162.64 110.461L159.954 110.572C159.776 109.089 159.678 107.596 159.658 106.095C159.639 104.593 159.629 103.147 159.629 101.757V96.4173C159.767 96.3802 159.963 96.3432 160.219 96.3061C160.475 96.2505 160.741 96.2227 161.016 96.2227C161.587 96.2227 162.001 96.3246 162.257 96.5286C162.512 96.7139 162.64 97.0384 162.64 97.5019V110.461ZM162.64 109.46V108.57V112.936C162.443 113.084 162.178 113.204 161.843 113.297C161.509 113.408 161.125 113.464 160.692 113.464C160.16 113.464 159.688 113.381 159.274 113.214C158.881 113.028 158.526 112.667 158.212 112.129L153.251 103.981C152.976 103.518 152.681 103.017 152.366 102.48C152.051 101.923 151.755 101.395 151.48 100.894C151.204 100.394 150.978 99.9583 150.801 99.5875L147.937 100.227V96.8623C148.134 96.6583 148.409 96.5007 148.764 96.3895C149.118 96.2783 149.492 96.2227 149.885 96.2227C150.417 96.2227 150.889 96.3154 151.303 96.5007C151.716 96.6861 152.08 97.0384 152.395 97.5575L157.385 105.705C157.68 106.169 157.975 106.679 158.271 107.235C158.586 107.772 158.871 108.292 159.127 108.792C159.383 109.293 159.599 109.728 159.776 110.099L162.64 109.46Z" fill="#000732"/>
<path d="M143.999 104.843C143.999 106.771 143.615 108.393 142.847 109.71C142.079 111.026 141.036 112.018 139.717 112.685C138.418 113.353 136.932 113.686 135.259 113.686C133.606 113.686 132.11 113.353 130.771 112.685C129.453 112.018 128.409 111.026 127.642 109.71C126.894 108.393 126.52 106.771 126.52 104.843C126.52 102.915 126.904 101.302 127.671 100.004C128.459 98.6882 129.512 97.6963 130.83 97.0289C132.149 96.343 133.625 96 135.259 96C136.893 96 138.369 96.343 139.688 97.0289C141.007 97.6963 142.05 98.6882 142.818 100.004C143.605 101.302 143.999 102.915 143.999 104.843ZM140.869 104.843C140.869 102.767 140.357 101.172 139.334 100.06C138.31 98.9477 136.952 98.3915 135.259 98.3915C133.566 98.3915 132.208 98.9477 131.185 100.06C130.161 101.172 129.649 102.767 129.649 104.843C129.649 106.92 130.151 108.514 131.155 109.626C132.179 110.739 133.547 111.295 135.259 111.295C136.972 111.295 138.33 110.739 139.334 109.626C140.357 108.514 140.869 106.92 140.869 104.843Z" fill="#000732"/>
<path d="M119.479 102.674H122.52V113.242C122.402 113.279 122.215 113.325 121.959 113.381C121.703 113.436 121.428 113.464 121.133 113.464C120.562 113.464 120.139 113.362 119.863 113.158C119.607 112.936 119.479 112.593 119.479 112.129V102.674ZM122.52 105.622H119.479V96.4451C119.617 96.408 119.814 96.3617 120.07 96.3061C120.345 96.2505 120.621 96.2227 120.896 96.2227C121.467 96.2227 121.881 96.3246 122.136 96.5286C122.392 96.7139 122.52 97.0569 122.52 97.5575V105.622Z" fill="#000732"/>
<path d="M108.901 111.323C110.122 111.323 111.037 111.072 111.647 110.572C112.277 110.071 112.592 109.432 112.592 108.653C112.592 107.985 112.346 107.439 111.854 107.012C111.381 106.567 110.653 106.215 109.669 105.955L107.425 105.316C106.519 105.038 105.732 104.704 105.063 104.315C104.394 103.925 103.872 103.434 103.498 102.841C103.144 102.248 102.967 101.534 102.967 100.7C102.967 99.2536 103.537 98.1135 104.679 97.2792C105.821 96.4264 107.366 96 109.314 96C110.397 96 111.362 96.1112 112.208 96.3337C113.054 96.5376 113.724 96.8157 114.216 97.168C114.708 97.5202 114.954 97.9095 114.954 98.3359C114.954 98.6325 114.865 98.9014 114.688 99.1424C114.531 99.3648 114.334 99.5502 114.098 99.6985C113.625 99.3463 112.976 99.0404 112.149 98.7809C111.342 98.5213 110.466 98.3915 109.521 98.3915C108.439 98.3915 107.592 98.6047 106.982 99.0311C106.372 99.439 106.067 99.9952 106.067 100.7C106.067 101.274 106.283 101.738 106.716 102.09C107.149 102.442 107.838 102.748 108.783 103.008L110.525 103.508C112.139 103.953 113.409 104.574 114.334 105.371C115.259 106.169 115.721 107.272 115.721 108.681C115.721 110.164 115.131 111.369 113.95 112.296C112.769 113.223 111.096 113.686 108.931 113.686C107.73 113.686 106.667 113.556 105.742 113.297C104.837 113.056 104.128 112.741 103.616 112.351C103.104 111.944 102.848 111.517 102.848 111.072C102.848 110.701 102.967 110.396 103.203 110.155C103.439 109.895 103.705 109.7 104 109.571C104.472 109.978 105.122 110.377 105.949 110.766C106.775 111.137 107.76 111.323 108.901 111.323Z" fill="#000732"/>
<path d="M93.2448 111.323C94.4651 111.323 95.3804 111.072 95.9906 110.572C96.6205 110.071 96.9354 109.432 96.9354 108.653C96.9354 107.985 96.6894 107.439 96.1973 107.012C95.7249 106.567 94.9966 106.215 94.0124 105.955L91.7685 105.316C90.8631 105.038 90.0757 104.704 89.4065 104.315C88.7373 103.925 88.2156 103.434 87.8417 102.841C87.4874 102.248 87.3102 101.534 87.3102 100.7C87.3102 99.2536 87.881 98.1135 89.0227 97.2792C90.1643 96.4264 91.7094 96 93.6581 96C94.7407 96 95.7052 96.1112 96.5516 96.3337C97.398 96.5376 98.0672 96.8157 98.5593 97.168C99.0514 97.5202 99.2974 97.9095 99.2974 98.3359C99.2974 98.6325 99.2088 98.9014 99.0317 99.1424C98.8742 99.3648 98.6774 99.5502 98.4412 99.6985C97.9688 99.3463 97.3192 99.0404 96.4925 98.7809C95.6855 98.5213 94.8096 98.3915 93.8648 98.3915C92.7822 98.3915 91.9358 98.6047 91.3256 99.0311C90.7154 99.439 90.4103 99.9952 90.4103 100.7C90.4103 101.274 90.6269 101.738 91.0599 102.09C91.4929 102.442 92.1819 102.748 93.1267 103.008L94.8686 103.508C96.4827 103.953 97.7523 104.574 98.6774 105.371C99.6025 106.169 100.065 107.272 100.065 108.681C100.065 110.164 99.4746 111.369 98.2936 112.296C97.1126 113.223 95.4395 113.686 93.2743 113.686C92.0736 113.686 91.0107 113.556 90.0856 113.297C89.1801 113.056 88.4715 112.741 87.9598 112.351C87.448 111.944 87.1921 111.517 87.1921 111.072C87.1921 110.701 87.3102 110.396 87.5464 110.155C87.7826 109.895 88.0483 109.7 88.3436 109.571C88.816 109.978 89.4655 110.377 90.2922 110.766C91.119 111.137 92.1031 111.323 93.2448 111.323Z" fill="#000732"/>
<path d="M72.394 102.619H75.4056V113.075C75.3072 113.112 75.1202 113.167 74.8446 113.241C74.5887 113.297 74.323 113.325 74.0474 113.325C73.5357 113.325 73.1321 113.186 72.8369 112.908C72.5416 112.611 72.394 112.231 72.394 111.768V102.619ZM75.4056 106.957H72.394V97.9467C72.394 97.4832 72.5416 97.1124 72.8369 96.8343C73.1321 96.5377 73.5357 96.3894 74.0474 96.3894C74.323 96.3894 74.5887 96.4172 74.8446 96.4728C75.1202 96.5284 75.3072 96.5841 75.4056 96.6397V106.957ZM74.0474 105.817V103.481H82.9345C83.0132 103.592 83.0821 103.749 83.1412 103.953C83.2199 104.139 83.2593 104.352 83.2593 104.593C83.2593 104.982 83.1608 105.288 82.964 105.511C82.7672 105.715 82.4916 105.817 82.1373 105.817H74.0474ZM74.0474 113.325V110.961H83.9679C84.0466 111.072 84.1155 111.23 84.1745 111.434C84.2533 111.619 84.2926 111.842 84.2926 112.101C84.2926 112.491 84.1942 112.796 83.9974 113.019C83.8202 113.223 83.5447 113.325 83.1707 113.325H74.0474ZM74.0474 98.7531V96.3894H83.8202C83.899 96.5006 83.9777 96.6582 84.0564 96.8622C84.1352 97.0661 84.1745 97.2793 84.1745 97.5017C84.1745 97.8911 84.0761 98.197 83.8793 98.4194C83.6825 98.6419 83.4069 98.7531 83.0526 98.7531H74.0474Z" fill="#000732"/>
<path d="M60.0959 106.428L57.0548 106.4V97.9467C57.0548 97.4832 57.2024 97.1124 57.4977 96.8343C57.7929 96.5377 58.1964 96.3894 58.7082 96.3894C58.9838 96.3894 59.2495 96.4172 59.5054 96.4728C59.7809 96.5284 59.9778 96.5841 60.0959 96.6397V106.428ZM58.6787 106.317V103.953H67.4772C67.5559 104.065 67.6346 104.222 67.7134 104.426C67.7921 104.611 67.8315 104.825 67.8315 105.066C67.8315 105.455 67.733 105.761 67.5362 105.983C67.3394 106.206 67.0638 106.317 66.7095 106.317H58.6787ZM58.7082 98.7809V96.3894H68.5105C68.5893 96.5006 68.6582 96.6582 68.7172 96.8622C68.796 97.0661 68.8353 97.2885 68.8353 97.5296C68.8353 97.9189 68.7369 98.2248 68.5401 98.4472C68.3432 98.6697 68.0677 98.7809 67.7134 98.7809H58.7082ZM57.0548 103.814H60.1254V113.269C60.0073 113.288 59.8105 113.325 59.5349 113.38C59.279 113.436 59.0133 113.464 58.7377 113.464C58.1669 113.464 57.7437 113.362 57.4681 113.158C57.1926 112.936 57.0548 112.602 57.0548 112.157V103.814Z" fill="#000732"/>
<path d="M53.1166 104.843C53.1166 106.771 52.7328 108.393 51.9651 109.71C51.1975 111.026 50.1543 112.018 48.8355 112.685C47.5364 113.353 46.0503 113.686 44.3772 113.686C42.7238 113.686 41.2278 113.353 39.8894 112.685C38.5706 112.018 37.5273 111.026 36.7597 109.71C36.0117 108.393 35.6377 106.771 35.6377 104.843C35.6377 102.915 36.0216 101.302 36.7892 100.004C37.5766 98.6882 38.6296 97.6963 39.9484 97.0289C41.2672 96.343 42.7435 96 44.3772 96C46.0109 96 47.4872 96.343 48.8059 97.0289C50.1247 97.6963 51.168 98.6882 51.9356 100.004C52.7229 101.302 53.1166 102.915 53.1166 104.843ZM49.9869 104.843C49.9869 102.767 49.4752 101.172 48.4516 100.06C47.4281 98.9477 46.0699 98.3915 44.3772 98.3915C42.6844 98.3915 41.3262 98.9477 40.3027 100.06C39.2792 101.172 38.7674 102.767 38.7674 104.843C38.7674 106.92 39.2693 108.514 40.2732 109.626C41.2967 110.739 42.6647 111.295 44.3772 111.295C46.0896 111.295 47.4478 110.739 48.4516 109.626C49.4752 108.514 49.9869 106.92 49.9869 104.843Z" fill="#000732"/>
<path d="M22.2957 104.815H25.2482C26.5473 104.815 27.5708 104.546 28.3188 104.009C29.0864 103.471 29.4703 102.665 29.4703 101.589C29.4703 100.551 29.0766 99.7632 28.2893 99.2256C27.5216 98.688 26.3996 98.4191 24.9234 98.4191C24.451 98.4191 23.9884 98.4377 23.5357 98.4748C23.083 98.5118 22.6696 98.5675 22.2957 98.6416V104.815ZM25.3663 107.123H19.2546V97.7239C19.2546 97.3902 19.3431 97.14 19.5203 96.9731C19.7171 96.8063 19.9829 96.6672 20.3175 96.556C20.908 96.3891 21.6264 96.2686 22.4728 96.1945C23.3192 96.1018 24.1656 96.0554 25.012 96.0554C27.5314 96.0554 29.4112 96.5467 30.6513 97.5293C31.911 98.5118 32.5409 99.8652 32.5409 101.589C32.5409 102.683 32.2555 103.647 31.6846 104.481C31.1335 105.316 30.3265 105.965 29.2636 106.428C28.2007 106.891 26.9016 107.123 25.3663 107.123ZM25.1596 106.317L27.6102 105.455C28.1416 106.085 28.6829 106.734 29.2341 107.401C29.7852 108.069 30.3166 108.718 30.8284 109.348C31.3599 109.978 31.8224 110.544 32.2161 111.044C32.6294 111.545 32.9542 111.943 33.1904 112.24C33.092 112.629 32.8755 112.944 32.5409 113.186C32.2063 113.408 31.8618 113.519 31.5075 113.519C31.0548 113.519 30.6906 113.417 30.4151 113.213C30.1395 113.009 29.8738 112.722 29.6179 112.351L25.1596 106.317ZM19.2546 106.206H22.3252V113.241C22.1874 113.278 21.9906 113.325 21.7347 113.38C21.4788 113.436 21.2032 113.464 20.908 113.464C20.3372 113.464 19.914 113.362 19.6384 113.158C19.3825 112.935 19.2546 112.592 19.2546 112.129V106.206Z" fill="#000732"/>
<path d="M2.416 107.457V97.7239C2.416 97.3902 2.50458 97.14 2.68173 96.9731C2.87856 96.8063 3.14429 96.6672 3.4789 96.556C4.06941 96.3891 4.77801 96.2686 5.60471 96.1945C6.4511 96.1018 7.25812 96.0554 8.02577 96.0554C10.5649 96.0554 12.4447 96.5652 13.6651 97.5849C14.8854 98.6045 15.4956 99.9764 15.4956 101.701C15.4956 102.869 15.2201 103.888 14.6689 104.76C14.1375 105.612 13.3305 106.28 12.2479 106.762C11.1653 107.225 9.80712 107.457 8.1734 107.457H2.416ZM4.06941 113.464C3.49859 113.464 3.07539 113.362 2.79983 113.158C2.54394 112.935 2.416 112.592 2.416 112.129V106.122H5.48661V113.241C5.34883 113.278 5.15199 113.325 4.89611 113.38C4.64023 113.436 4.36466 113.464 4.06941 113.464ZM5.45709 105.121H7.99625C9.39377 105.121 10.4764 104.843 11.244 104.287C12.0313 103.712 12.425 102.859 12.425 101.728C12.425 100.597 12.051 99.7632 11.3031 99.2256C10.5551 98.688 9.48235 98.4191 8.08482 98.4191C7.59274 98.4191 7.12034 98.4377 6.66762 98.4748C6.23458 98.5118 5.83107 98.5675 5.45709 98.6416V105.121Z" fill="#000732"/>
</svg>
